<!DOCTYPE svg PUBLIC "-//W3C//DTD SVG 1.1//EN" "http://www.w3.org/Graphics/SVG/1.1/DTD/svg11.dtd">
<!-- Uploaded to: SVG Repo, www.svgrepo.com, Transformed by: SVG Repo Mixer Tools -->
<svg fill="#000000" version="1.1" id="Layer_1" xmlns="http://www.w3.org/2000/svg" xmlns:xlink="http://www.w3.org/1999/xlink" viewBox="-128 -128 768.00 768.00" xml:space="preserve" width="256px" height="256px" transform="matrix(1, 0, 0, 1, 0, 0)rotate(0)">
<g id="SVGRepo_bgCarrier" stroke-width="0"/>
<g id="SVGRepo_tracerCarrier" stroke-linecap="round" stroke-linejoin="round"/>
<g id="SVGRepo_iconCarrier"> <g> <g> <path d="M256,84.402c-67.96,0-123.251,55.289-123.251,123.251c0,32.543,12.568,63.238,35.387,86.433l1.734,1.76 c10.11,10.657,17.075,23.729,20.271,38.011v48.433c0,24.984,20.325,45.308,45.308,45.308h41.099 c24.984,0,45.308-20.325,45.308-45.308v-48.434c3.19-14.254,10.135-27.304,20.213-37.95l1.793-1.822 c22.82-23.194,35.387-53.889,35.387-86.433C379.25,139.691,323.961,84.402,256,84.402z M276.549,397.18h-41.099 c-6.378,0-11.816-4.037-13.933-9.686h68.966C288.365,393.143,282.928,397.18,276.549,397.18z M291.44,357.078h-70.88v-9.685h70.88 V357.078z M322.738,272.181l-0.458,0.456c-12.57,12.526-21.874,27.677-27.311,44.337h-23.766v-63.457 c3.012,0.731,6.154,1.128,9.389,1.128c21.946,0,39.8-17.854,39.8-39.8s-17.854-39.8-39.8-39.8c-9.277,0-17.816,3.2-24.591,8.541 c-6.775-5.341-15.314-8.541-24.591-8.541c-21.946,0-39.8,17.854-39.8,39.8s17.854,39.8,39.8,39.8c3.23,0,6.368-0.396,9.377-1.126 v63.455h-23.755c-5.436-16.662-14.739-31.812-27.311-44.337l-0.443-0.441c-16.844-17.403-26.111-40.293-26.111-64.545 c0-51.188,41.644-92.833,92.833-92.833s92.833,41.644,92.833,92.833C348.833,231.897,339.572,254.781,322.738,272.181z M271.208,214.846c0-5.174,4.209-9.383,9.383-9.383s9.383,4.209,9.383,9.383s-4.209,9.383-9.383,9.383 S271.208,220.02,271.208,214.846z M240.791,214.846c0,5.174-4.209,9.383-9.383,9.383c-5.174,0-9.383-4.209-9.383-9.383 s4.209-9.383,9.383-9.383C236.582,205.463,240.791,209.672,240.791,214.846z"/> </g> </g> <g> <g> <rect x="240.793" width="30.417" height="62.345"/> </g> </g> <g> <g> <rect x="240.793" y="449.658" width="30.417" height="62.345"/> </g> </g> <g> <g> <rect x="154.757" y="17.122" transform="matrix(0.9239 -0.3827 0.3827 0.9239 -5.5439 68.7207)" width="30.418" height="62.347"/> </g> </g> <g> <g> <rect x="326.825" y="432.526" transform="matrix(0.9239 -0.3827 0.3827 0.9239 -151.4167 166.1918)" width="30.418" height="62.347"/> </g> </g> <g> <g> <rect x="310.872" y="33.087" transform="matrix(0.3827 -0.9239 0.9239 0.3827 166.5285 345.8218)" width="62.347" height="30.418"/> </g> </g> <g> <g> <rect x="138.794" y="448.489" transform="matrix(0.3827 -0.9239 0.9239 0.3827 -323.4771 443.2747)" width="62.347" height="30.418"/> </g> </g> <g> <g> <rect x="81.811" y="65.852" transform="matrix(0.7071 -0.7071 0.7071 0.7071 -40.1905 97.0211)" width="30.417" height="62.345"/> </g> </g> <g> <g> <rect x="399.777" y="383.805" transform="matrix(0.7071 -0.7071 0.7071 0.7071 -171.8871 414.9835)" width="30.417" height="62.345"/> </g> </g> <g> <g> <rect y="240.793" width="62.345" height="30.417"/> </g> </g> <g> <g> <rect x="449.658" y="240.793" width="62.345" height="30.417"/> </g> </g> <g> <g> <rect x="17.123" y="326.837" transform="matrix(0.9239 -0.3827 0.3827 0.9239 -127.2211 44.5201)" width="62.347" height="30.418"/> </g> </g> <g> <g> <rect x="432.525" y="154.759" transform="matrix(0.9239 -0.3827 0.3827 0.9239 -29.7468 190.3913)" width="62.347" height="30.418"/> </g> </g> <g> <g> <rect x="448.505" y="310.841" transform="matrix(0.3827 -0.9239 0.9239 0.3827 -29.7235 639.5431)" width="30.418" height="62.347"/> </g> </g> <g> <g> <rect x="33.074" y="138.792" transform="matrix(0.3827 -0.9239 0.9239 0.3827 -127.2215 149.5289)" width="30.418" height="62.347"/> </g> </g> <g> <g> <rect x="65.852" y="399.776" transform="matrix(0.7071 -0.7071 0.7071 0.7071 -265.0207 190.1524)" width="62.345" height="30.417"/> </g> </g> <g> <g> <rect x="383.805" y="81.815" transform="matrix(0.7071 -0.7071 0.7071 0.7071 52.938 321.8508)" width="62.345" height="30.417"/> </g> </g> </g>
</svg>